<mxfile><diagram name="Page-1"><mxGraphModel dx="1100" dy="767" grid="1" gridSize="10" guides="1" tooltips="1" connect="1" arrows="1" fold="1" page="1" pageScale="1" pageWidth="827" pageHeight="1169" math="0" shadow="0"><root><mxCell id="0" /><mxCell id="1" value="Start" style="ellipse;whiteSpace=wrap;html=1;" vertex="1" connectable="0" top="0" left="0" width="120" height="60" /><mxCell id="2" value="Set left = 0, right = n - 1" style="rounded=1;whiteSpace=wrap;html=1;" vertex="1" connectable="0" top="100" left="200" width="160" height="60" /><mxCell id="3" value="Is left &lt;= right?" style="rhombus;whiteSpace=wrap;html=1;" vertex="1" connectable="0" top="200" left="200" width="160" height="60" /><mxCell id="4" value="Return -1" style="rounded=1;whiteSpace=wrap;html=1;" vertex="1" connectable="0" top="300" left="200" width="120" height="60" /><mxCell id="5" value="Calculate mid = (left + right) / 2" style="rounded=1;whiteSpace=wrap;html=1;" vertex="1" connectable="0" top="400" left="200" width="160" height="60" /><mxCell id="6" value="Is data[mid] == find?" style="rhombus;whiteSpace=wrap;html=1;" vertex="1" connectable="0" top="500" left="200" width="160" height="60" /><mxCell id="7" value="Return mid" style="rounded=1;whiteSpace=wrap;html=1;" vertex="1" connectable="0" top="600" left="200" width="120" height="60" /><mxCell id="8" value="Set left = mid + 1" style="rounded=1;whiteSpace=wrap;html=1;" vertex="1" connectable="0" top="700" left="50" width="160" height="60" /><mxCell id="9" value="Set right = mid - 1" style="rounded=1;whiteSpace=wrap;html=1;" vertex="1" connectable="0" top="700" left="350" width="160" height="60" /><mxCell id="10" value="End" style="ellipse;whiteSpace=wrap;html=1;" vertex="1" connectable="0" top="800" left="200" width="120" height="60" /><mxCell id="11" value="" style="edgeStyle=orthogonalEdgeStyle;rounded=0;orthogonal=1;jettySize=auto;html=1;" edge="1" source="1" target="2" /><mxCell id="12" value="" style="edgeStyle=orthogonalEdgeStyle;rounded=0;orthogonal=1;jettySize=auto;html=1;" edge="1" source="2" target="3" /><mxCell id="13" value="" style="edgeStyle=orthogonalEdgeStyle;rounded=0;orthogonal=1;jettySize=auto;html=1;" edge="1" source="3" target="4" /><mxCell id="14" value="" style="edgeStyle=orthogonalEdgeStyle;rounded=0;orthogonal=1;jettySize=auto;html=1;" edge="1" source="3" target="5" /><mxCell id="15" value="" style="edgeStyle=orthogonalEdgeStyle;rounded=0;orthogonal=1;jettySize=auto;html=1;" edge="1" source="5" target="6" /><mxCell id="16" value="" style="edgeStyle=orthogonalEdgeStyle;rounded=0;orthogonal=1;jettySize=auto;html=1;" edge="1" source="6" target="7" /><mxCell id="17" value="" style="edgeStyle=orthogonalEdgeStyle;rounded=0;orthogonal=1;jettySize=auto;html=1;" edge="1" source="6" target="8" /><mxCell id="18" value="" style="edgeStyle=orthogonalEdgeStyle;rounded=0;orthogonal=1;jettySize=auto;html=1;" edge="1" source="6" target="9" /><mxCell id="19" value="" style="edgeStyle=orthogonalEdgeStyle;rounded=0;orthogonal=1;jettySize=auto;html=1;" edge="1" source="8" target="3" /><mxCell id="20" value="" style="edgeStyle=orthogonalEdgeStyle;rounded=0;orthogonal=1;jettySize=auto;html=1;" edge="1" source="9" target="3" /><mxCell id="21" value="" style="edgeStyle=orthogonalEdgeStyle;rounded=0;orthogonal=1;jettySize=auto;html=1;" edge="1" source="7" target="10" /></root></mxGraphModel></diagram></mxfile>